<svg id="Layer_1" data-name="Layer 1" xmlns="http://www.w3.org/2000/svg" viewBox="0 0 367.66 89.18"><defs><style>.cls-1{fill:#fff;}</style></defs><title>footer-logo-Artboard 1 copy</title><path class="cls-1" d="M352.61,72.51a7,7,0,1,1,7,7A7,7,0,0,1,352.61,72.51Zm7,7.77a7.77,7.77,0,1,0-7.76-7.77A7.78,7.78,0,0,0,359.6,80.28Z"/><rect class="cls-1" x="118.84" y="24.68" width="13.76" height="52.49"/><polygon class="cls-1" points="345 79.11 320.18 54.8 320.18 76.97 306.35 76.92 306.35 23.06 331.27 44.52 331.27 24.68 345 24.68 345 79.11"/><path class="cls-1" d="M94.21,30.32,85.3,40.45A13.49,13.49,0,1,0,85.42,61l8.91,10.12a27,27,0,1,1-.12-40.81Z"/><polygon class="cls-1" points="158.82 89.18 132.78 20 111.01 20 111.01 77.38 96.77 77.38 96.77 20 65.23 20 72.56 6.23 142.95 6.23 158.82 47.67 174.69 6.23 242.84 6.23 250.37 20 184.86 20 158.82 89.18"/><path class="cls-1" d="M220.49,35.87h8.85V24.48H215c-4.68,0-11.6,2.85-11.6,12.41,0,12.61,15.57,20.85,14,25.94-.73,2.44-3.66,2.54-5.19,2.54h-9.46V77h15.46c6.62,0,13.23-4.07,13.23-11.8,0-14.75-18.08-22.79-14.24-28.28C218,35.87,220.49,35.87,220.49,35.87Z"/><rect class="cls-1" x="185.07" y="24.48" width="13.76" height="52.49"/><rect class="cls-1" x="233.72" y="24.48" width="13.76" height="52.49"/><path class="cls-1" d="M356.05,67.81h4.7a2.38,2.38,0,0,1,2.55,2.4,2.14,2.14,0,0,1-1.37,2.19v0c.94.24,1.2,1.16,1.26,2a4.83,4.83,0,0,0,.37,2.06h-1.92a9.91,9.91,0,0,1-.3-2.08c-.13-.92-.49-1.32-1.45-1.32H358v3.4h-1.92ZM358,71.75h2.1c.85,0,1.32-.37,1.32-1.25s-.47-1.2-1.32-1.2H358Z"/><path class="cls-1" d="M27,.27.13,77.17H14.78l3.66-9.76H35.53l3.66,9.76H53.84Zm-.3,53.1H22.61l4.07-13.43,4.07,13.43Z"/><path class="cls-1" d="M250,50.77a27,27,0,1,1,27,27A27,27,0,0,1,250,50.77ZM277,64.2A13.43,13.43,0,1,0,263.6,50.77,13.43,13.43,0,0,0,277,64.2Z"/></svg>