<svg id="Layer_1" data-name="Layer 1" xmlns="http://www.w3.org/2000/svg" viewBox="0 0 281 73"><defs><style>.cls-1{fill:#67090c;}.cls-2{fill:#faf9f6;}</style></defs><title>footer</title><path class="cls-1" d="M60.69,44.73a4.95,4.95,0,0,0-7.2-6.47q-1-.87-2.1-1.74c9.27-7.44,14.39-14.61,12.29-18.26s-10.89-2.79-22,1.51C39.91,8,36.26,0,32.05,0c-2.51,0-4.82,2.85-6.67,7.65a4.75,4.75,0,0,0-.54,0,4.95,4.95,0,0,0-2,9.47c-.16.87-.31,1.76-.45,2.68-11.08-4.3-19.86-5.16-22-1.51s3,10.82,12.28,18.26C3.44,44-1.69,51.14.42,54.78c1.25,2.18,4.88,2.75,10,1.95.08.17.16.33.25.49a4.94,4.94,0,0,0,9.2-3c.84-.29,1.69-.61,2.56-.94C24.19,65,27.84,73,32.05,73s7.86-8,9.67-19.76c11.07,4.3,19.85,5.15,22,1.5,1.25-2.17-.06-5.6-3.29-9.59Zm-2.15-23.5c1.76,3.06-1.65,8.61-8.23,14.43-2.3-1.78-4.82-3.57-7.54-5.33-.16-3.23-.45-6.31-.85-9.19C50.26,18.35,56.77,18.17,58.54,21.23ZM37,45.09q-2.51,1.44-5,2.66c-1.63-.81-3.29-1.7-4.95-2.66s-3.26-2-4.78-3c-.11-1.82-.17-3.7-.17-5.62s.06-3.79.17-5.61c1.52-1,3.12-2,4.78-3s3.32-1.84,4.95-2.66Q34.5,26.52,37,28t4.77,3c.11,1.82.17,3.69.17,5.61s-.06,3.8-.17,5.62C40.25,43.14,38.66,44.13,37,45.09Zm4.69-1.68a77.39,77.39,0,0,1-1,8.06,78,78,0,0,1-7.49-3.15c1.42-.75,2.86-1.54,4.3-2.37S40.33,44.27,41.69,43.41ZM30.91,48.32a79.11,79.11,0,0,1-7.49,3.15,74.78,74.78,0,0,1-1-8.06c1.35.86,2.76,1.71,4.2,2.54S29.48,47.57,30.91,48.32Zm-9.65-6.89a79.91,79.91,0,0,1-6.48-4.91,77.64,77.64,0,0,1,6.48-4.9c-.06,1.6-.09,3.24-.09,4.9S21.2,39.82,21.26,41.43Zm1.15-11.79a74.65,74.65,0,0,1,1-8.07,79.3,79.3,0,0,1,7.49,3.16q-2.14,1.13-4.3,2.37C25.17,27.93,23.76,28.78,22.41,29.64Zm10.78-4.91a78.21,78.21,0,0,1,7.49-3.16,77.25,77.25,0,0,1,1,8.07q-2-1.29-4.2-2.54C36.05,26.27,34.61,25.48,33.19,24.73Zm9.64,6.89a74.47,74.47,0,0,1,6.48,4.9,76.56,76.56,0,0,1-6.48,4.91c.07-1.61.1-3.24.1-4.91S42.9,33.22,42.83,31.62ZM24.31,17.48a4.58,4.58,0,0,0,.53,0A5,5,0,0,0,27.93,8.7c1.25-1.77,2.65-2.76,4.12-2.76,3.53,0,6.63,5.72,8.38,14.34-2.69,1.1-5.5,2.39-8.38,3.86-2.88-1.47-5.69-2.76-8.39-3.86C23.86,19.31,24.08,18.38,24.31,17.48ZM5.56,21.23c1.77-3.06,8.28-2.88,16.62-.09-.4,2.88-.69,6-.86,9.19-2.71,1.76-5.23,3.55-7.53,5.33C7.2,29.84,3.79,24.29,5.56,21.23ZM19.43,52.75q-.11-.24-.24-.48A4.94,4.94,0,0,0,10,54c-2.17-.2-3.73-.91-4.46-2.18-1.77-3.06,1.64-8.61,8.23-14.44,2.3,1.79,4.82,3.58,7.53,5.34.17,3.22.46,6.3.86,9.18C21.24,52.22,20.32,52.5,19.43,52.75ZM32.05,67.11c-3.54,0-6.64-5.73-8.39-14.35,2.7-1.09,5.51-2.38,8.39-3.85,2.88,1.47,5.69,2.76,8.38,3.85C38.68,61.38,35.58,67.11,32.05,67.11ZM58.54,51.82c-1.77,3.06-8.28,2.88-16.62.08.4-2.88.69-6,.85-9.18C45.49,41,48,39.17,50.31,37.38c.74.66,1.44,1.31,2.1,2-.1.14-.2.29-.29.44a5,5,0,0,0,6.08,7.09C59.11,48.84,59.27,50.54,58.54,51.82Z"/><polygon class="cls-2" points="67.1 20.96 60.16 46.88 70.13 46.88 74.94 28.93 76.93 28.93 77.73 25.94 75.74 25.94 76.81 21.95 80.8 21.95 80.26 23.95 90.23 23.95 91.57 18.96 69.63 18.96 67.1 20.96"/><polygon class="cls-2" points="74.12 46.88 84.09 46.88 89.7 25.94 79.73 25.94 74.12 46.88"/><polygon class="cls-2" points="24.26 46.88 34.23 46.88 39.84 25.94 29.87 25.94 24.26 46.88"/><polygon class="cls-2" points="41.83 25.94 36.22 46.88 46.2 46.88 51.01 28.93 53 28.93 48.19 46.88 58.16 46.88 63.24 27.94 61.78 25.94 41.83 25.94"/><polygon class="cls-2" points="110.02 46.88 119.99 46.88 125.6 25.94 115.63 25.94 110.02 46.88"/><polygon class="cls-2" points="30.4 23.95 40.37 23.95 41.71 18.96 31.74 18.96 30.4 23.95"/><polygon class="cls-2" points="199.39 25.94 194.58 43.89 192.58 43.89 197.39 25.94 187.42 25.94 182.61 43.89 180.62 43.89 185.43 25.94 175.45 25.94 170.38 44.89 171.84 46.88 203.75 46.88 209.36 25.94 199.39 25.94"/><polygon class="cls-2" points="116.16 23.95 126.13 23.95 127.47 18.96 117.5 18.96 116.16 23.95"/><path class="cls-2" d="M271,19l-1.87,7h-10l-2.53,2h0l-1.47-2H235.27l-5.61,20.94h10l4.81-17.94h2l-.81,3h10l-3.48,13,1.46,2h19.95L281,19Zm-6.68,24.93h-2l4-14.95h2Z"/><path class="cls-2" d="M231.28,25.94H211.35l-1.6,6h10l.8-3h2l-1.34,5H209.22l-2.94,11,1.46,2h19.93l5.07-18.94Zm-12.78,18h-2l1.88-7h2Z"/><polygon class="cls-2" points="150.7 43.89 148.71 43.89 153.51 25.94 143.54 25.94 137.93 46.88 149.9 46.88 148.56 51.87 146.57 51.87 147.36 48.91 137.39 48.91 136.33 52.87 137.79 54.86 155.74 54.86 158.27 52.87 165.48 25.94 155.51 25.94 150.7 43.89"/><polygon class="cls-2" points="136.74 43.89 132.76 43.89 136.76 28.93 140.71 28.93 141.51 25.94 137.57 25.94 139.44 18.96 129.46 18.96 122.52 44.89 123.98 46.88 135.94 46.88 136.74 43.89"/><polygon class="cls-2" points="91.69 25.94 86.08 46.88 96.06 46.88 100.86 28.93 102.86 28.93 98.05 46.88 108.02 46.88 113.1 27.94 111.64 25.94 91.69 25.94"/></svg>