<svg id="Layer_1" data-name="Layer 1" xmlns="http://www.w3.org/2000/svg" viewBox="0 0 548 142"><defs><style>.cls-1{fill:#fff;}</style></defs><g id="Logo_Horizontal" data-name="Logo Horizontal"><path class="cls-1" d="M67.27,12.09,67,32,50.1,31.18,49,55.14l2.09,38.58-1,2.41,1.28,4.18.48,8.2,1.61,11.09,1.92,5-24.55.32-5.14,1.29.17-58.36,1.76-4.18-1.44-5.46.64-22.67H18l-4.81,1.92-.81-24.71,14,.64H47.53l3,1.61,5.78-2.25h7.38Z"/><path class="cls-1" d="M134.51,72.59l-6.74,49.27-5.13-.64-5.3,2.24L95,127,80.27,115.92,71.6,70.66l3.53-18.93,1.61-2.89v-5l5.09-27.12,15.11-4,4.61-2.09L123.35,15,131,55.58v4l1.93,4.17Zm-27.44,5.78-1.44-44-8.83.49-3,30.33L96,103.56l7.38.32,2.73,1.61Z"/><path class="cls-1" d="M203,14,201,23.8v22l-1.12,5L200.47,72,200,105l-11.24,19.25-27.92-.8H143l.63-22.95,4.14,1.93,28.3,2.57L177,94.74l-22-1.77L140.29,73.39l.8-29.53,1.28-7.7-.8-8.67L141.09,14,140,10.64,162.76,10l1.44,60.18,9.63-.64L177,71.63V14.33Z"/><path class="cls-1" d="M270.28,87.67l-.8,6.26-1.29,1.93.8,3.53-1.6,14.44-9.63,10-22.63,3.53-10.91-3.69-4.33-3.05h-4.18L209,118.34l1.61-29.08L209,84.63l23.75.8v9l1,10h7.7l3.69,1.93,1.45-18.13-3-7.07L229,75.48l-3.5-3-2.54.64-10-3.85-4-25.36,3.2-21.66L224,14.65l16.91-3.21,11,4,1.91,1.92,4.47.32,8.3,3.05-1,24.72,1,3.53-3.85-.16-17.5.32V32.63l-10.87.64-2.44-1.6L230.8,49.16l5.13,5.45,26.64,9.63Z"/><path class="cls-1" d="M316.16,16.58,315.9,23l-4.69-.44h-5.39l-1.94-.34-1.15.34h-2.65l-.36,4.13,13.79.29-.88,4.38-.62.74.26,1-.35,1.92-12.37-.24,1,1.37,1.06,10.44,1,4.44L287.35,51l-.09-2.45.53-.78-.44-.93,1-8.65-1-18.67-.62-2.5,22.8-.39,1.68.44,1.86-.39Z"/><path class="cls-1" d="M313.31,74.27l-3.71,15-2.83-.19-2.92.68-12.29,1.07-8.13-3.36-4.77-13.77,1.94-5.76.89-.88V65.53l2.8-8.25,8.32-1.22,2.54-.64,12,1.32,4.2,12.35v1.22l1.06,1.27ZM298.19,76l-.79-13.37-4.86.15L290.86,72l1.23,11.67,4.07.1,1.5.48Z"/><path class="cls-1" d="M316.46,132.05,301,131.61l.35-8L298,120.28l-2.66-.14-1.41-.54v1.46l-.09,6.5,1.15,3.27-4.62-.2-8.55.2.35-11.91-.35-12.3.71-1.76-.71-.88V98l-1-1.22,24.57.09,6.72,3,2.91,6.78-2.82,8.06-5.84,2.49,7.78,3.9.35,2.88-.35,1.22.8,2.15.53,3.56ZM301,103h-6.54v4.84l-.62,1.41.62.93v4.1l5.92-.39-.18-10.06Z"/><path class="cls-1" d="M392.08,115.07l-16.92,16.14-35.49-1.59-3-2.12-2.51,1.85-4-.16-1-45.12,1.51-3.87L329,76.33l-.84-57.74-1.69-6.06,35.86-.68L365.65,13l2.86-1,6.39-.13L391.07,29.5l1,19-3.37,14.12-10.27,12.1,10.77,12.44,2.36,20.68-.5,4.2Zm-25.26-5.24-1.68-23.4-13,1.18V93.5l-1,2.86,1,2.36v9.59Zm-1-69.19-1-2.86V32.22L352.52,33.9l.65,32.83,11.63-.34v-22Z"/><path class="cls-1" d="M464,75l-7.07,51.68L451.5,126l-5.56,2.35-23.4,3.71-15.48-11.62L398,73l3.7-19.86,1.68-3V44.85l5.34-28.45,15.85-4.21L429.38,10l22.86,4.55,8,42.59v4.2l2,4.38ZM435.17,81l-1.52-46.13-9.25.51-3.2,31.82,2.35,40.23,7.75.34,2.86,1.68Z"/><path class="cls-1" d="M535.67,115.07l-16.92,16.14-35.49-1.59-3-2.12-2.51,1.85-4-.16-1-45.12,1.51-3.87-1.68-3.87-.84-57.74L470,12.53l35.86-.68L509.24,13l2.86-1,6.4-.13L534.66,29.5l1,19L532.3,62.62,522,74.72l10.78,12.44,2.35,20.68-.5,4.2Zm-25.25-5.24-1.69-23.4-13,1.18V93.5l-1,2.86,1,2.36v9.59Zm-1-69.19-1-2.86V32.22L496.11,33.9l.65,32.83,11.64-.34v-22Z"/></g></svg>