<svg id="Layer_1" data-name="Layer 1" xmlns="http://www.w3.org/2000/svg" viewBox="0 0 367.66 113.99"><defs><style>.cls-1{fill:#fff;}</style></defs><title>footer-logo-Artboard 1</title><path class="cls-1" d="M123.25,46.27V74.46h-7.18V46.27h-9.45V39.45h26v6.82Z"/><path class="cls-1" d="M161.48,56.6a18.06,18.06,0,0,1-3.15,3.15,8.92,8.92,0,0,1-1.4.82l7.58,13.89h-7.93l-7-13.37H144V74.46h-7.12v-35h17a8.05,8.05,0,0,1,4.38,1.34A27.21,27.21,0,0,1,161.48,44a6.87,6.87,0,0,1,1.11,3.85v5A6.56,6.56,0,0,1,161.48,56.6Zm-6-8.93a4.39,4.39,0,0,0-1.52-1.4H144v8H154a4.47,4.47,0,0,0,1.52-1.4Z"/><path class="cls-1" d="M168.78,74.46v-35h23v6.82H175.9v7.18h15.34v6.83H175.9v7.35h15.87v6.83Z"/><path class="cls-1" d="M214.91,59.29V74.46h-7.18V59.29L196,39.45h8.05l7.3,12.31,7.41-12.31h8.05Z"/><path class="cls-1" d="M247.3,74.46,245,67.75h-12.2c-.76,2.16-1.63,4.55-2.39,6.71h-7.59l12.14-35h7.88l12.08,35Zm-8.46-24.8c-1.28,3.73-2.63,7.53-3.91,11.26h7.88Z"/><path class="cls-1" d="M283.22,56.6a18.06,18.06,0,0,1-3.15,3.15,8.56,8.56,0,0,1-1.41.82c2.86,5.25,7.59,13.89,7.59,13.89h-7.94l-6.94-13.37h-5.6V74.46h-7.12v-35h17a8.05,8.05,0,0,1,4.38,1.34A28,28,0,0,1,283.22,44a6.94,6.94,0,0,1,1.1,3.85v5A6.63,6.63,0,0,1,283.22,56.6Zm-6-8.93a4.58,4.58,0,0,0-1.52-1.4h-9.92v8h9.92a4.56,4.56,0,0,0,1.52-1.4Z"/><path class="cls-1" d="M310.17,49.72A8.12,8.12,0,0,0,307.08,46h-7.3a11,11,0,0,0-2.27,2.33V65.76a6.93,6.93,0,0,0,2.27,2.16h7.41a9.81,9.81,0,0,0,3-3.5l6.65,1.63a14.82,14.82,0,0,1-2,3.74c-1.4,2-4.14,5-7.7,5h-7.65a8.09,8.09,0,0,1-3.85-1.11,22.6,22.6,0,0,1-4.26-4.2,6.92,6.92,0,0,1-1-3.62V48.14a6.18,6.18,0,0,1,1-3.62,23.1,23.1,0,0,1,4.32-4.2,8.33,8.33,0,0,1,3.79-1.11h7.65c3.56,0,6.24,3,7.64,4.9a15.45,15.45,0,0,1,2,3.74Z"/><path class="cls-1" d="M339.81,74.46V60.34H328.14V74.46H321v-35h7.12V53.51h11.67V39.45h7.12v35Z"/><path class="cls-1" d="M112.38,76.1l2.2,3.81c3.75,5.08,7.77,15,1.53,24,.5-.76,3-5.16-.17-13.5,0,0,1.62,16.76-18,11.84A74.34,74.34,0,0,1,66.7,85.65l.47-.69,7.14,5.23c19.23,13.92,32,11.3,32,11.3-16.72.12-32-12.39-32-12.39a9.44,9.44,0,0,1-1.76-6.24l-1.86-3s5.73-8.86,7.91-13.54c0,0,17.18,5.06,20.43,17.14,0,0,3.79,13-17.27,3.89,0,0,38.62,20.17,29.44-2.48,0,0-7.77-15.74-30.73-23.23l.17-.48A47.41,47.41,0,0,1,93.26,66.8c24.84,15.65,19.91,26.14,19.91,26.14l.35-.26c3.75-12.77-20.16-26.4-20.16-26.4l-8-7.94A75.42,75.42,0,0,1,94.83,62l2,.79C91.08,59,83.2,56.77,82,56.45A92.21,92.21,0,0,0,84.45,38C85.45,12,74.84.12,61.22,0,60,0,51.48-.18,45.79,9.24c0,0,1-.72,1-.72C49.21,6.1,55.36,1.65,61.07,2.2l2.32,1.28s-5.72-1.4-9.17,2.62c0,0,5.17-4.76,12.75-.83l.46.63a13.07,13.07,0,0,0-3.06-1.27c-.56-.15-4.46-1.13-7.28.41l3.74,1.28c.22,0,17.13,1,15.66,33.22-.4,8.78-2.94,24.41-12.41,36.39-8.92,11.3-34.74,35.87-49.38,24.84,0,0-7.34-5.29.84-19.23,0,0-8.25,9-5.34,21.64,0,0-9.78-8.23,3.9-27.07,9.87-12.5,25.7-18,25.7-18l1.38.07-5,6.6C25.34,68.5,16.81,81.59,16.81,81.59c-11.11,21,6.33,19.89,6.33,19.89-3.46-1.41-3.05-5.31-3.05-5.31,4.52,2.43,10.5,0,10.5,0,11-3.87,23.76-18.51,23.76-18.51l-.84.15-3.06,3-2.29.44C37.39,91.51,21.48,95.67,25.75,83.69c4-11.23,17.93-16.64,19.67-17.28a107.68,107.68,0,0,0,6.39,11.23l4.95-6.21h0l.06-.08h0l4.43-5.87a16.06,16.06,0,0,1-1.31-2.09h2.12l2-3.68-.48,3.68-2.47,4.14L60.92,69l3.34-5.07c2.41-4.62,5.28-12.49,5.51-24.08,0,0,1.81-19.91-9.09-27.85h0s4.56-2.33,9.14,4.39a33.56,33.56,0,0,1,3.34,7.15,42.34,42.34,0,0,1,1.31,4.61c-3.93-24.71-16.8-17.48-16.8-17.48-2.19,1-11.92,6.91-10.78,29.53a75.82,75.82,0,0,0,9.65,30.91c-3.18-3.39-6.14-9.83-6.14-9.83L51,66l-.41,1.22,0,1.37-.39,2.86-5.87-9.19-.85-2.71-.61-3.27-.38.09C16.4,64.78,4.22,87.53,3.2,89.5l-.07.14c-8.18,17.58.46,25.77,16.59,24.15,10.79-1.08,22.45-2.86,41.44-22.53l.13-.13c1,1,21.46,21.19,43.45,22.6C124.34,115,131.11,98.09,112.38,76.1ZM56.45,54a64.67,64.67,0,0,1-1.82-14.48c-.34-18,6.61-17.28,6.61-17.28s6.6-.52,6.82,17.54a75.29,75.29,0,0,1-2,14.23c-1.29-.06-3.92-.19-5-.19S57.81,54,56.45,54Z"/><path class="cls-1" d="M38.27,33.37a43.62,43.62,0,0,1,4.32-18.85c-.2.54-.83,4.63-.83,4.63l.74,2.72c-2.08,4.19-2.7,16.44-1,23.22l-.43,2.78.43,4.19A55.93,55.93,0,0,1,38.27,33.37Z"/><polygon class="cls-1" points="87.53 22.17 88.13 26.11 362.71 26.11 363.71 26.11 363.71 27.11 363.71 86.86 363.71 87.86 362.71 87.86 125.16 87.86 126.6 91.8 367.66 91.81 367.66 22.15 87.53 22.17"/><polygon class="cls-1" points="34.58 22.14 9.68 22.15 9.66 72.16 10.36 72.16 13.62 69.04 13.63 26.11 34.04 26.1 34.58 22.14"/></svg>