<svg id="Layer_1" data-name="Layer 1" xmlns="http://www.w3.org/2000/svg" viewBox="0 0 198 33"><defs><style>.cls-1{fill:#fff;fill-rule:evenodd;}</style></defs><title>Artboard 1svg</title><path class="cls-1" d="M176.36.56c-.52,2.15-1,4.14-1.38,6l4,12L185,.56Zm-158,.84A15,15,0,0,0,11.51,0,15,15,0,0,0,6.07.91a8.84,8.84,0,0,0-3.7,2.48A6.69,6.69,0,0,0,.77,6.68,35.43,35.43,0,0,0,.5,11.79V21a20.92,20.92,0,0,0,.87,7,6.72,6.72,0,0,0,3.57,3.61,15.65,15.65,0,0,0,6.84,1.31,13.53,13.53,0,0,0,6.71-1.54A7.44,7.44,0,0,0,22,27.75a21.2,21.2,0,0,0,.8-6.95V19.57H13.37v4a9.86,9.86,0,0,1-.33,3.3,1.35,1.35,0,0,1-1.38.71,1.39,1.39,0,0,1-1.41-.7,9,9,0,0,1-.31-3V9.18a9.62,9.62,0,0,1,.31-3.12c.21-.48.7-.72,1.48-.72a1.38,1.38,0,0,1,1.34.59,8.74,8.74,0,0,1,.3,3v5.49h9.44v-3A18.31,18.31,0,0,0,22,4.9,7.08,7.08,0,0,0,18.39,1.4ZM58,.58H48.58V32.2H63.72V25.87H58Zm17.39,0H66V32.2H81.12V25.87H75.39ZM27.92.51,23.11,32.2H32L35.06,7.36,36.75,21H34.81l-.6,5.3H37.4l.74,5.92H47L41.56.51ZM84,9a2.49,2.49,0,0,0-1.06-.86,3.69,3.69,0,0,0-1.48-.28,3.58,3.58,0,0,0-1.52.3,2.46,2.46,0,0,0-1,.87,2.64,2.64,0,0,0-.46,1.24c0,.46-.07,1.23-.07,2.33v1.86c0,1.12,0,1.91.07,2.35a2.86,2.86,0,0,0,.48,1.25,2.46,2.46,0,0,0,1.06.85,3.69,3.69,0,0,0,1.48.29,3.58,3.58,0,0,0,1.52-.3,2.41,2.41,0,0,0,1-.87,2.67,2.67,0,0,0,.46-1.25c0-.45.07-1.23.07-2.32V12.62c0-1.12,0-1.91-.07-2.36A2.6,2.6,0,0,0,84,9Zm-2.12,6.89a5.57,5.57,0,0,1-.08,1.21.33.33,0,0,1-.35.26.33.33,0,0,1-.34-.22A6.07,6.07,0,0,1,81,16V10.9a2.67,2.67,0,0,1,.11-1,.37.37,0,0,1,.32-.17.31.31,0,0,1,.33.21,3.7,3.7,0,0,1,.08,1ZM191.11,25V24.9A2.34,2.34,0,0,0,193,22.61a2.23,2.23,0,0,0-.87-1.95,5.09,5.09,0,0,0-3-.7,16.52,16.52,0,0,0-2.71.23v9.39H188v-4H189a1.78,1.78,0,0,1,2,1.65,7.26,7.26,0,0,0,.65,2.4h1.6a7.74,7.74,0,0,1-.61-2.32C192.52,25.87,192,25.12,191.11,25Zm-2.06-.59H188V21.19a7.21,7.21,0,0,1,1.09-.07c1.72,0,2.33.82,2.33,1.64C191.38,23.92,190.31,24.38,189.05,24.38Zm.54-8.14h0A8.45,8.45,0,1,0,198,24.67,8.45,8.45,0,0,0,189.55,16.24Zm0,15.59a7,7,0,0,1-6.88-7.16,7,7,0,0,1,6.84-7.11h0a7,7,0,0,1,6.85,7.15A6.92,6.92,0,0,1,189.59,31.83ZM174.39,9.45l-.51-1.58L171.46.56h-8.62l6.6,20.33V32.42h8.7V20.89l0,0L174.39,9.43ZM85.41,19h2.52V14.42h1.56V12.35H87.93V10.28h1.75V8.1H85.41ZM112.78,2.93a7.49,7.49,0,0,0-3.67-1.8A51,51,0,0,0,99.86.59H92.79V32.22H104.7a29.78,29.78,0,0,0,5.07-.32,7.11,7.11,0,0,0,2.83-1.14,4.24,4.24,0,0,0,1.6-2.24,22.39,22.39,0,0,0,.46-5.7V11.74a36.93,36.93,0,0,0-.31-6A5.48,5.48,0,0,0,112.78,2.93Zm-7.56,19.29c0,2.11-.16,3.4-.47,3.88s-1.15.71-2.52.71V6a5.24,5.24,0,0,1,2.11.28,1.31,1.31,0,0,1,.72.89,13.85,13.85,0,0,1,.16,2.76ZM140.5,6.9h5.59V32.24h9.45V6.9h5.61V.56H140.5Zm-11.41,17a10.47,10.47,0,0,1-.25,3,1.1,1.1,0,0,1-1.15.64,1,1,0,0,1-1-.58,8.27,8.27,0,0,1-.25-2.64V.59H117V19.3a67.78,67.78,0,0,0,.22,7,6.3,6.3,0,0,0,1.45,3.17,8.49,8.49,0,0,0,3.7,2.44,15.88,15.88,0,0,0,5.7.94,14.67,14.67,0,0,0,5.07-.79,8.16,8.16,0,0,0,3.46-2.33,6.35,6.35,0,0,0,1.58-3,32,32,0,0,0,.27-5.05V.59h-9.38Z"/></svg>